<svg width="98" height="98" viewBox="0 0 98 98" fill="none" xmlns="http://www.w3.org/2000/svg">
<path d="M40.6819 9.61263C45.0687 4.54314 52.9313 4.54314 57.3181 9.61264L59.117 11.6916C61.3883 14.3163 64.7652 15.7151 68.2272 15.4651L70.9693 15.2672C77.6559 14.7844 83.2156 20.3441 82.7328 27.0307L82.5349 29.7728C82.2849 33.2348 83.6837 36.6117 86.3084 38.883L88.3874 40.6819C93.4569 45.0687 93.4569 52.9313 88.3874 57.3181L86.3084 59.117C83.6837 61.3883 82.2849 64.7652 82.5349 68.2272L82.7328 70.9693C83.2156 77.6559 77.6559 83.2156 70.9693 82.7328L68.2272 82.5349C64.7652 82.2849 61.3883 83.6837 59.117 86.3084L57.3181 88.3874C52.9313 93.4569 45.0687 93.4569 40.6819 88.3874L38.883 86.3084C36.6117 83.6837 33.2348 82.2849 29.7728 82.5349L27.0307 82.7328C20.3441 83.2156 14.7844 77.6559 15.2672 70.9693L15.4651 68.2272C15.7151 64.7652 14.3163 61.3883 11.6916 59.117L9.61263 57.3181C4.54314 52.9313 4.54314 45.0687 9.61264 40.6819L11.6916 38.883C14.3163 36.6117 15.7151 33.2348 15.4651 29.7728L15.2672 27.0307C14.7844 20.3441 20.3441 14.7844 27.0307 15.2672L29.7728 15.4651C33.2348 15.7151 36.6117 14.3163 38.883 11.6916L40.6819 9.61263Z" fill="#EBBF76"/>
<ellipse cx="48.5" cy="49" rx="29.5" ry="30" fill="#D28D4C"/>
</svg>
